<svg width="28" height="28" viewBox="0 0 28 28" fill="none" xmlns="http://www.w3.org/2000/svg">
<path d="M14 28C21.732 28 28 21.9558 28 14.5C28 7.04416 21.732 1 14 1C6.26801 1 0 7.04416 0 14.5C0 21.9558 6.26801 28 14 28Z" fill="#8AD5EC"/>
<path d="M27.9999 17H15.8835C15.3976 17 14.9999 17.367 14.9999 17.8155C14.9999 18.2641 15.3975 18.6311 15.8835 18.6311H22.171C22.8075 18.7215 23.2816 19.0418 23.2816 19.4207C23.2816 19.7996 22.8075 20.1199 22.171 20.2104H18.5724C18.0865 20.2104 17.6888 20.5773 17.6888 21.0259C17.6888 21.4744 18.0864 21.8415 18.5724 21.8415C18.5724 21.8415 20.7912 21.7894 21.5279 21.8415C22.1698 21.8868 22.6384 22.2522 22.6384 22.6311C22.6384 22.9562 22.3041 23.303 21.7882 23.3689C21.7003 23.3802 21.4329 23.3689 21.4329 23.3689C21.3994 23.3689 21.3665 23.3727 21.3338 23.3744C21.2642 23.378 21.0549 23.3744 21.0549 23.3744C20.5706 23.3744 20.1743 23.7402 20.1743 24.1872C20.1743 24.6342 20.5706 25 21.0549 25H21.433H23.4751C25.8879 22.959 27.542 20.1561 27.9999 17Z" fill="#E0F8FC"/>
<path d="M0.999939 11H6.49326H6.75812C7.09742 11 7.37506 10.7257 7.37506 10.3904C7.37506 10.0551 7.09742 9.78087 6.75812 9.78087C6.75812 9.78087 6.61148 9.78358 6.56264 9.78087C6.53973 9.77965 6.51672 9.77674 6.49326 9.77674C6.49326 9.77674 6.30599 9.78521 6.24431 9.77674C5.88298 9.72729 5.64874 9.4672 5.64874 9.22336C5.64874 8.9392 5.97698 8.66518 6.42674 8.63113C6.94286 8.59208 8.49721 8.63113 8.49721 8.63113C8.83768 8.63113 9.11619 8.35589 9.11619 8.01947C9.11619 7.68306 8.83768 7.40782 8.49721 7.40782H5.97615C5.53035 7.34002 5.19815 7.09975 5.19815 6.81559C5.19815 6.53143 5.53035 6.29121 5.97615 6.22331H10.381C10.7214 6.22331 10.9999 5.94807 10.9999 5.61165C10.9999 5.27524 10.7214 5 10.381 5H4.72817C2.93925 6.61687 1.62574 8.68216 0.999939 11Z" fill="#E0F8FC"/>
<path d="M8.17907 18.1014L9.03186 18.2629L10.7509 9.6631L9.89813 9.50157L8.17907 18.1014Z" fill="#ABBAC3"/>
<path d="M21.0964 15.1862L20.4723 14.5979L14.2105 20.8921L14.8347 21.4804L21.0964 15.1862Z" fill="#ABBAC3"/>
<path d="M27.8525 8.40911L27.8492 8.40733C27.7237 8.34103 27.5669 8.37765 27.487 8.49363C26.8088 9.47757 25.4703 9.81724 24.3824 9.24255C23.4194 8.73394 22.9549 7.66869 23.1791 6.66814C23.266 6.28051 23.0724 5.88422 22.7169 5.69643C22.3614 5.50865 21.9187 5.56889 21.6383 5.85432C20.9144 6.59095 19.7552 6.79852 18.7923 6.28991C17.8294 5.78129 17.3649 4.71605 17.589 3.71544C17.6759 3.32781 17.4824 2.93157 17.1268 2.74373C16.7713 2.55595 16.3286 2.61619 16.0482 2.90156C15.3243 3.63819 14.1652 3.84576 13.2022 3.33715C12.1144 2.76252 11.6626 1.47726 12.1217 0.37756C12.1758 0.247961 12.1202 0.0991341 11.9947 0.03289C11.839 -0.049415 11.6456 0.0293332 11.5944 0.195833L9 14.4552L17.5274 19L27.9356 8.82747C28.0484 8.69342 28.0082 8.49141 27.8525 8.40911Z" fill="#FEBF3F"/>
<path d="M7.55867 18C7.54025 18.0306 7.52122 18.0607 7.50352 18.0919C6.3995 20.0433 7.17147 22.4745 9.22765 23.5222C11.2839 24.5699 13.8458 23.8373 14.9498 21.886C14.9675 21.8547 14.9833 21.8231 15 21.7915L7.55867 18Z" fill="#D3EEF4"/>
<path d="M8.69963 22.7997C10.6831 23.3812 12.9239 22.6674 13.9482 21.0365C13.9664 21.0075 13.9827 20.9781 14 20.9488L7.57608 18C7.55708 18.0284 7.53739 18.0564 7.5192 18.0854C6.49484 19.7163 7.03687 21.7075 8.69963 22.7997Z" fill="white"/>
<path d="M14.4736 21.9586L8.18815 18.6575C8.01491 18.5666 7.94926 18.3535 8.0423 18.184C8.1353 18.0146 8.35312 17.9504 8.52636 18.0414L14.8119 21.3425C14.9851 21.4335 15.0507 21.6465 14.9577 21.816C14.8647 21.9855 14.6468 22.0496 14.4736 21.9586Z" fill="#F47851"/>
<path d="M13.9567 20.8375C14.052 20.6879 13.9847 20.4998 13.8072 20.4195L8.53947 18.0365C8.3619 17.9562 8.1387 18.0129 8.04333 18.1625C7.94801 18.3121 8.0153 18.5001 8.19281 18.5805L13.4605 20.9635C13.6381 21.0438 13.8614 20.9871 13.9567 20.8375Z" fill="#F6895C"/>
<path d="M15.3984 21.9483L8.21498 17.8219C8.01702 17.7082 7.94204 17.4419 8.04832 17.23C8.15459 17.0182 8.40352 16.938 8.60154 17.0517L15.785 21.1781C15.983 21.2918 16.058 21.5581 15.9517 21.77C15.8453 21.9818 15.5964 22.062 15.3984 21.9483Z" fill="#F97E5D"/>
<path d="M14.9477 20.7767C15.0627 20.5712 14.9816 20.3126 14.7674 20.2023L8.65077 17.0502C8.4366 16.9398 8.16723 17.0177 8.05226 17.2232C7.93729 17.4288 8.01846 17.6873 8.23257 17.7977L14.3492 20.9498C14.5634 21.0602 14.8328 20.9823 14.9477 20.7767Z" fill="#FC926D"/>
<path d="M12.2256 16C14.4811 15.2005 16.5373 13.4261 17.8085 10.91C18.5411 9.45978 18.9285 7.92975 19 6.44039C18.7154 6.4113 18.4316 6.32551 18.164 6.17711C17.2629 5.67762 16.8282 4.63148 17.0379 3.64882C17.1192 3.26814 16.9381 2.879 16.6054 2.69453C16.2727 2.51011 15.8584 2.56927 15.596 2.84953C14.9185 3.57295 13.8337 3.7768 12.9326 3.27731C11.9145 2.71303 11.4918 1.45077 11.9214 0.370789C11.9721 0.243515 11.92 0.0973564 11.8026 0.0323002C11.6568 -0.0485289 11.4758 0.0288072 11.428 0.192321L9 14.1959L12.2256 16Z" fill="#FFCA3E"/>
<path d="M17.2481 18.9483L8.26876 14.8219C8.02132 14.7081 7.92752 14.4418 8.06041 14.23C8.1933 14.0183 8.50445 13.938 8.75188 14.0517L17.7312 18.1781C17.9787 18.2919 18.0725 18.5582 17.9396 18.77C17.8067 18.9817 17.4956 19.062 17.2481 18.9483Z" fill="#F9AA2B"/>
<path d="M15.9402 17.7767C16.0717 17.5712 15.9789 17.3127 15.7342 17.2023L8.74371 14.0502C8.49896 13.9398 8.19114 14.0177 8.05975 14.2233C7.92831 14.4288 8.02109 14.6873 8.26584 14.7977L15.2563 17.9498C15.501 18.0602 15.8087 17.9823 15.9402 17.7767Z" fill="#FCB330"/>
</svg>
