<svg width="27" height="28" viewBox="0 0 27 28" fill="none" xmlns="http://www.w3.org/2000/svg">
<path d="M13.5 28C20.9558 28 27 21.732 27 14C27 6.26801 20.9558 0 13.5 0C6.04416 0 0 6.26801 0 14C0 21.732 6.04416 28 13.5 28Z" fill="#504A7F"/>
<path d="M24.4665 17.4221L26.6471 11.0374C27.8406 7.54263 25.9078 3.73963 22.3436 2.64346C19.9085 1.89457 17.2484 1.60495 15.3566 2.85997C14.2808 3.57367 13.6573 4.78927 13.6573 6.06965C13.6573 6.28088 13.5307 6.47281 13.3338 6.55504C12.7206 6.81103 11.5109 7.72061 12.2123 10.8397C12.9228 13.9988 14.2515 16.5509 14.8188 17.5479C14.9779 17.8275 15.2771 18 15.6017 18H23.652C24.0209 17.9999 24.3486 17.7674 24.4665 17.4221Z" fill="#FF7171"/>
<path d="M17.7842 17.8712L16.6727 10.0634C16.2019 6.75611 18.034 3.65119 21 2.19786C19.0154 1.84473 17.0393 1.90667 15.529 2.85969C14.398 3.5734 13.7425 4.78903 13.7425 6.06943C13.7425 6.28066 13.6093 6.4726 13.4023 6.55478C12.7577 6.81077 11.4857 7.72036 12.2233 10.8395C12.9702 13.9987 14.3671 16.5508 14.9636 17.5479C15.1308 17.8275 15.4454 18 15.7867 18H17.8125C17.8004 17.958 17.7904 17.9152 17.7842 17.8712Z" fill="#FF5252"/>
<path d="M14.5 10C14.7762 10 15 9.75428 15 9.45108V3C14.3625 3.76078 14.0048 4.77527 14.0048 5.83197C14.0048 5.85642 14.0028 5.88045 14 5.90424V9.45096C14 9.75422 14.2239 10 14.5 10Z" fill="#EA3D3D"/>
<path d="M25 18.7028C25 18.3147 24.6544 18 24.2279 18H15.7721C15.3457 18 15 18.3146 15 18.7028V23.2973C15 23.6854 15.3456 24 15.7721 24H23.0488C23.7839 23.367 24.4391 22.6581 25 21.8873V18.7028Z" fill="#AAC5EE"/>
<path d="M23 23.2973V18.7028C23 18.3147 22.6639 18 22.2491 18H15.7509C15.3362 18 15 18.3146 15 18.7028V23.2973C15 23.6854 15.3361 24 15.7509 24H22.2492C22.6639 24 23 23.6854 23 23.2973Z" fill="#CEDDF7"/>
<path d="M17.7569 23.4671V18.533C17.7569 18.3249 17.8498 18.1366 18 18H15.775C15.347 18 15 18.3146 15 18.7027V23.2973C15 23.6854 15.347 24 15.775 24H18C17.8498 23.8635 17.7569 23.6752 17.7569 23.4671Z" fill="#AAC5EE"/>
<path d="M20.78 19H15V23H20.78C20.9015 23 21 22.8698 21 22.7092V19.2908C21 19.1302 20.9015 19 20.78 19Z" fill="#FFB229"/>
<path d="M17 19H15V23H17V19Z" fill="#FC9B00"/>
<path d="M20.8637 19H20V23H20.8637C20.939 23 21 22.8698 21 22.7092V19.2908C21 19.1302 20.939 19 20.8637 19Z" fill="#FBCC68"/>
<path d="M8.85278 8.04067C8.64706 8.06474 8.44658 7.96907 8.3429 7.80022C7.71461 6.77676 6.59451 6.08935 5.34083 6.00944C4.42983 5.95139 3.5382 6.16448 2.68695 6.55463C0.997872 8.72685 0 11.4045 0 14.3018C0 15.7204 0.239987 17.0861 0.682309 18.366L4.83613 21.8045C5.1046 22.0267 5.49394 22.0632 5.80367 21.8949L12.5643 18.2238C12.837 18.0757 13.0035 17.8014 12.9999 17.5054C12.9871 16.4497 12.8506 13.8036 11.8971 10.9543C10.9556 8.1411 9.49334 7.96569 8.85278 8.04067Z" fill="#FF5252"/>
<path d="M9.74156 10.9372C9.49447 11.0665 9.17846 10.9898 9.0358 10.7658L6 6C6.9285 6.26348 7.72597 6.84547 8.22324 7.62615C8.23475 7.6442 8.24788 7.66099 8.26157 7.67726L9.93063 10.2975C10.0734 10.5215 9.98872 10.8079 9.74156 10.9372Z" fill="#EA3D3D"/>
<path d="M7.44475 20.0652L2.94139 14.0894C1.36603 11.999 1.04522 9.31037 1.86305 7C0.680055 9.0448 0 11.4337 0 13.9866C0 15.4633 0.228224 16.8849 0.648867 18.2172L4.5991 21.7965C4.85441 22.0278 5.22467 22.0658 5.51921 21.8906L8 20.4161C7.78464 20.373 7.58569 20.2522 7.44475 20.0652Z" fill="#EA3D3D"/>
<path d="M13.2322 18.4189C13.0077 18.0183 12.5103 17.8811 12.1213 18.1123L4.40677 22.699C4.01777 22.9303 3.88452 23.4425 4.1091 23.8431L5.3813 26.1122C6.59361 26.9453 7.93934 27.5882 9.37869 28L15.5932 24.3051C15.9822 24.0738 16.1155 23.5616 15.8909 23.161L13.2322 18.4189Z" fill="#8FB1DB"/>
<path d="M13.3339 18.4191C13.1176 18.0183 12.6384 17.881 12.2637 18.1124L6.39183 21.7387C6.01712 21.9701 5.88876 22.4826 6.10509 22.8834L8.66611 27.6282C8.67863 27.6514 8.69225 27.6735 8.7065 27.695C9.0007 27.8074 9.29948 27.9093 9.60273 28C9.64821 27.983 9.69301 27.9617 9.73629 27.9349L15.6082 24.3086C15.9829 24.0772 16.1112 23.5647 15.8949 23.1639L13.3339 18.4191Z" fill="#CEDDF7"/>
<path d="M10.5533 26.966L7.68014 21.997C7.49151 21.6708 7.53737 21.2744 7.76413 21L6.41722 21.7765C6.01823 22.0065 5.88155 22.5159 6.1119 22.9143L8.83887 27.6305C8.8522 27.6535 8.8667 27.6755 8.88187 27.6968C9.19514 27.8085 9.51328 27.9099 9.83618 28C9.88461 27.9831 9.93231 27.9619 9.97839 27.9353L11 27.3464C10.8182 27.2769 10.6582 27.1474 10.5533 26.966Z" fill="#AAC5EE"/>
<path d="M8.13281 22.6513L14.1738 19L16 22.3115L9.95906 25.9627C9.83202 26.0395 9.66964 25.9939 9.59628 25.8609L8.0356 23.031C7.96229 22.8981 8.00583 22.7281 8.13281 22.6513Z" fill="#FFB229"/>
<path d="M8.11662 22.8331L9.39646 22L11 25.1316L9.72015 25.9647C9.60861 26.0373 9.46603 25.9943 9.40161 25.8685L8.03126 23.1923C7.96689 23.0665 8.00512 22.9058 8.11662 22.8331Z" fill="#FBCC68"/>
</svg>
