<svg width="28" height="28" viewBox="0 0 28 28" fill="none" xmlns="http://www.w3.org/2000/svg">
<path d="M15.0002 28C22.1799 28 28.0002 21.732 28.0002 14C28.0002 6.26801 22.1799 0 15.0002 0C7.82054 0 2.00024 6.26801 2.00024 14C2.00024 21.732 7.82054 28 15.0002 28Z" fill="#518066"/>
<path d="M20.0002 21C21.1048 21 22.0002 20.5523 22.0002 20C22.0002 19.4477 21.1048 19 20.0002 19C18.8957 19 18.0002 19.4477 18.0002 20C18.0002 20.5523 18.8957 21 20.0002 21Z" fill="#367862"/>
<path d="M18.5002 19C19.3287 19 20.0002 18.3284 20.0002 17.5C20.0002 16.6716 19.3287 16 18.5002 16C17.6718 16 17.0002 16.6716 17.0002 17.5C17.0002 18.3284 17.6718 19 18.5002 19Z" fill="#F9D363"/>
<path d="M8.36574 2C7.51127 2.53927 6.71843 3.18168 6.00024 3.91083L27.0002 9C26.6269 7.9961 26.1522 7.04897 25.5898 6.1742L8.36574 2Z" fill="white"/>
<path d="M4.64345 15.5257C6.21815 18.5325 10.1584 19.3924 13.4442 17.4463C16.73 15.5002 18.1171 11.485 16.5424 8.47823C14.9677 5.47143 11.0275 4.61157 7.74169 6.55769C4.45588 8.5038 3.06876 12.5189 4.64345 15.5257Z" fill="#921D0F"/>
<path d="M9.00049 18.574L4.62019 10.0002C3.88407 11.4174 3.63898 13.0238 3.99323 14.5014L0.616366 16.5514C0.0378362 16.9026 -0.170006 17.6984 0.152194 18.3291C0.474394 18.9596 1.20453 19.186 1.783 18.8349L5.15993 16.7849C6.12576 17.8912 7.50775 18.5099 9.00049 18.574Z" fill="#EA7053"/>
<g opacity="0.3">
<path opacity="0.3" d="M0.880186 18.8659C0.544711 18.2301 0.761117 17.4276 1.36348 17.0736L4.87954 15.0069C4.87313 14.9808 4.86827 14.9544 4.86217 14.9282C4.84869 14.8701 4.83539 14.8122 4.82376 14.7539C4.81692 14.7196 4.8112 14.6851 4.80498 14.6506C4.79371 14.5877 4.78251 14.5246 4.77333 14.4613C4.76921 14.4331 4.76619 14.4047 4.7625 14.3764C4.75345 14.3065 4.74471 14.2366 4.73818 14.1664C4.73652 14.1484 4.73565 14.1302 4.73412 14.1121C4.52719 11.6324 5.90178 8.97729 8.3842 7.51823C10.6091 6.21032 13.1397 6.20629 15.0005 7.29339C13.1144 5.72386 10.1909 5.52618 7.6624 7.01254C5.17998 8.47173 3.80539 11.1269 4.01231 13.6065C4.01379 13.6245 4.01465 13.6427 4.01638 13.6609C4.0229 13.731 4.03164 13.801 4.04069 13.8708C4.04439 13.8991 4.04747 13.9274 4.05153 13.9557C4.0607 14.019 4.07191 14.0821 4.08324 14.1451C4.08939 14.1794 4.09518 14.2139 4.10195 14.2482C4.11359 14.3065 4.12689 14.3646 4.14037 14.4225C4.14653 14.4487 4.15127 14.4751 4.15773 14.5013L0.64174 16.5681C0.0393749 16.9221 -0.177031 17.7245 0.158444 18.3603C0.336063 18.6969 0.633121 18.9179 0.962501 19C0.933072 18.9574 0.905059 18.9131 0.880186 18.8659Z" fill="#EA7053"/>
<path opacity="0.3" d="M6.8619 17.8512C6.82777 17.8137 6.79317 17.7772 6.75961 17.7387C6.69107 17.6603 6.62441 17.579 6.55784 17.4975C6.51845 17.4494 6.47877 17.4018 6.44022 17.3526C6.3793 17.2748 6.32006 17.1945 6.26102 17.1141C6.23281 17.0755 6.2032 17.0391 6.17537 17L6.00049 17.1303C6.02174 17.1514 6.04336 17.1721 6.06452 17.1932C6.15515 17.2836 6.24654 17.3732 6.34018 17.4587C6.34366 17.462 6.34752 17.4649 6.351 17.4682C6.56047 17.659 6.77775 17.8351 7.00049 18C6.95432 17.9507 6.9076 17.9016 6.8619 17.8512Z" fill="#EA7053"/>
</g>
</svg>
