<svg width="28" height="28" viewBox="0 0 28 28" fill="none" xmlns="http://www.w3.org/2000/svg">
<path d="M28 14C28 21.7321 21.7321 28 14 28C6.26791 28 0 21.7321 0 14C0 6.26791 6.26791 0 14 0C21.7321 0 28 6.26791 28 14Z" fill="#9E69E2"/>
<path d="M28 13.9634C28 15.3918 27.7872 16.7703 27.3914 18.0687C25.6407 23.8175 20.307 28 14 28C8.28195 28 3.36392 24.5622 1.19052 19.6356C0.424896 17.9014 0 15.9823 0 13.9634C0 11.4293 0.669922 9.05228 1.84186 7C4.25473 11.2258 8.79593 14.0731 14 14.0731C19.2041 14.0731 23.7459 11.2258 26.1581 7C27.3301 9.05228 28 11.4293 28 13.9634Z" fill="#8E4FD2"/>
<path d="M2 21C2.39711 21.689 2.85622 22.3416 3.37169 22.9508C5.97418 26.0271 9.99193 28 14.5 28C19.0081 28 23.0258 26.0271 25.6283 22.9508C26.1438 22.3416 26.6029 21.689 27 21H2Z" fill="#7038BA"/>
<path d="M22 12.0004C22 12.1557 21.9945 12.3095 21.9836 12.4619C21.9034 13.6183 21.5219 14.698 20.912 15.633C20.7402 15.8972 20.5496 16.1496 20.3432 16.3889C19.065 17.8691 17.1548 18.8535 14.9952 18.9849C14.8313 18.9949 14.666 19 14.4997 19C14.3333 19 14.1685 18.9949 14.0052 18.9849C11.8449 18.8541 9.93477 17.8695 8.65724 16.3889C8.45022 16.1496 8.2596 15.8974 8.088 15.633C7.47809 14.698 7.0964 13.6183 7.01618 12.4619C7.00525 12.3095 7 12.1557 7 12.0004C7 11.8454 7.00525 11.6909 7.01618 11.5381C7.09706 10.3821 7.47809 9.30242 8.08843 8.36698C8.26026 8.10318 8.45022 7.85101 8.65724 7.61108C9.93477 6.13089 11.8449 5.14649 14.0052 5.0153C14.1685 5.0051 14.3333 5 14.4997 5C14.666 5 14.8313 5.0051 14.9952 5.0153C15.2184 5.02856 15.4392 5.05121 15.6565 5.08324C15.7086 5.09018 15.7599 5.09834 15.8115 5.1067C15.9475 5.12894 16.0822 5.15485 16.2155 5.18382C16.261 5.19403 16.3064 5.20423 16.3521 5.21524C16.4584 5.24034 16.5644 5.26788 16.6689 5.29746C16.7093 5.30848 16.75 5.32052 16.7902 5.33256C18.0572 5.71143 19.178 6.39612 20.0522 7.29362C20.0922 7.33524 20.1318 7.37686 20.1709 7.41889C20.1709 7.41929 20.1716 7.41929 20.1716 7.41929C20.2105 7.46194 20.2492 7.50437 20.2872 7.54742C20.306 7.56864 20.3244 7.58986 20.3432 7.61108C20.3439 7.6121 20.3443 7.6125 20.3447 7.61291C20.3823 7.65678 20.4195 7.70064 20.4558 7.74512C20.5106 7.81204 20.564 7.87998 20.6167 7.94832C20.6864 8.03973 20.7537 8.13276 20.8184 8.22743C20.8407 8.26027 20.863 8.29292 20.8849 8.32617C20.8943 8.33964 20.903 8.35351 20.912 8.36698C20.924 8.38534 20.9358 8.40391 20.9472 8.42227C20.959 8.44083 20.971 8.4592 20.9824 8.47776C21.0056 8.51469 21.0285 8.55162 21.0513 8.58957C21.0803 8.63894 21.1096 8.68831 21.1378 8.7383C21.166 8.78808 21.1938 8.83847 21.2205 8.88927C21.2478 8.94008 21.2738 8.99088 21.2996 9.04229C21.3383 9.11941 21.3754 9.19694 21.4106 9.27549C21.7294 9.97855 21.9283 10.74 21.9838 11.5379C21.9945 11.6909 22 11.8454 22 12.0004Z" fill="#FFD112"/>
<path d="M22 12.0004C22 12.1557 21.9944 12.3095 21.9833 12.4619C21.9014 13.6183 21.512 14.698 20.8895 15.633C20.7141 15.8972 20.5196 16.1496 20.3089 16.3889C19.0043 17.8691 17.0546 18.8535 14.8503 18.9849C14.683 18.9949 14.5143 19 14.3445 19C14.1723 18.9057 14.004 18.8066 13.8398 18.7021C12.1817 17.6506 10.9331 16.0988 10.3552 14.2855C10.1691 13.702 10.0524 13.0917 10.0145 12.4621C10.0045 12.3091 10 12.1553 10 12.0006C10 11.8454 10.0045 11.6911 10.0145 11.5381C10.0524 10.9085 10.1691 10.298 10.3552 9.71516C10.9336 7.90181 12.1826 6.34961 13.8398 5.29808C14.004 5.19362 14.1723 5.09426 14.3445 5.00061V5C14.5143 5 14.683 5.0051 14.8503 5.0153C15.0782 5.02877 15.3035 5.05141 15.5253 5.08324C15.5784 5.09018 15.6308 5.09854 15.6835 5.1067C15.8223 5.12894 15.9597 5.15485 16.0958 5.18382C16.1422 5.19403 16.1887 5.20423 16.2353 5.21524C16.3437 5.24034 16.4519 5.26809 16.5586 5.29746C16.5999 5.30869 16.6414 5.32072 16.6824 5.33256C17.9757 5.71143 19.1197 6.39612 20.0119 7.29382C20.0528 7.33544 20.0932 7.37686 20.1331 7.41889C20.1331 7.4195 20.1338 7.4195 20.1338 7.4195C20.1735 7.46194 20.213 7.50437 20.2518 7.54742C20.271 7.56864 20.2897 7.58986 20.3089 7.61108C20.3096 7.6121 20.31 7.6125 20.3105 7.61291C20.3489 7.65678 20.3868 7.70085 20.4238 7.74512C20.4798 7.81224 20.5343 7.87998 20.5881 7.94832C20.6592 8.03993 20.728 8.13276 20.794 8.22743C20.8168 8.26027 20.8395 8.29312 20.8618 8.32638C20.8714 8.33964 20.8803 8.35351 20.8895 8.36698C20.9018 8.38534 20.9138 8.40391 20.9254 8.42227C20.9375 8.44083 20.9497 8.4594 20.9613 8.47776C20.985 8.51469 21.0084 8.55162 21.0316 8.58957C21.0613 8.63894 21.0912 8.68831 21.12 8.7383C21.1488 8.78808 21.1771 8.83847 21.2043 8.88927C21.2322 8.94008 21.2588 8.99088 21.2851 9.04229C21.3246 9.11941 21.3625 9.19694 21.3984 9.27549C21.7238 9.97875 21.9268 10.74 21.9835 11.5379C21.9944 11.6909 22 11.8454 22 12.0004Z" fill="#FF9F00"/>
<path d="M22 12.0004C22 12.1557 21.9942 12.3095 21.9825 12.4619C21.8969 13.6183 21.4901 14.698 20.8395 15.633C20.6563 15.8972 20.4529 16.1496 20.2328 16.3889C18.8695 17.8691 16.8321 18.8535 14.5286 18.9849C14.3537 18.9949 14.1774 19 14 19V5C14.1774 5 14.3537 5.0051 14.5286 5.0153C14.7667 5.02877 15.0022 5.05141 15.2339 5.08324C15.2894 5.09018 15.3442 5.09854 15.3992 5.1067C15.5443 5.12894 15.6879 5.15485 15.8301 5.18382C15.8786 5.19403 15.9271 5.20423 15.9759 5.21524C16.0892 5.24034 16.2023 5.26809 16.3137 5.29746C16.3569 5.30869 16.4002 5.32072 16.4431 5.33256C17.7946 5.71143 18.99 6.39612 19.9225 7.29382C19.9651 7.33544 20.0073 7.37686 20.0491 7.41889C20.0491 7.4195 20.0498 7.4195 20.0498 7.4195C20.0913 7.46194 20.1326 7.50437 20.1731 7.54742C20.1932 7.56864 20.2128 7.58986 20.2328 7.61108C20.2335 7.6121 20.234 7.6125 20.2345 7.61291C20.2746 7.65678 20.3142 7.70085 20.3529 7.74512C20.4114 7.81224 20.4683 7.87998 20.5245 7.94832C20.5989 8.03993 20.6707 8.13276 20.7397 8.22743C20.7635 8.26027 20.7873 8.29312 20.8106 8.32638C20.8206 8.33964 20.83 8.35351 20.8391 8.36698C20.8516 8.38534 20.8645 8.40391 20.8771 8.42227C20.8897 8.44083 20.9025 8.4594 20.9146 8.47776C20.9393 8.51469 20.9638 8.55162 20.988 8.58957C21.0191 8.63894 21.0503 8.68831 21.0804 8.7383C21.1105 8.78808 21.1401 8.83847 21.1685 8.88927C21.1977 8.94008 21.2254 8.99088 21.2529 9.04229C21.2937 9.11941 21.3331 9.19694 21.3714 9.27549C21.7113 9.97875 21.9235 10.74 21.9827 11.5379C21.9942 11.6909 22 11.8454 22 12.0004Z" fill="#ED771B"/>
<path d="M22 12.0004C22 11.8454 21.9945 11.6909 21.9836 11.5381H18.8707C19.0191 10.2209 19.7943 9.07575 20.9116 8.36698H20.912C20.9031 8.35351 20.8941 8.33964 20.8847 8.32638C20.8631 8.29312 20.8408 8.26027 20.8185 8.22743C20.7535 8.13276 20.6862 8.03993 20.6165 7.94853C20.564 7.88018 20.5104 7.81224 20.4556 7.74512C20.4195 7.70085 20.3823 7.65698 20.3447 7.61312C20.3441 7.6125 20.3437 7.6121 20.3432 7.61128C18.97 8.48674 18.0276 9.90816 17.8767 11.5381H14.9954V5.0153C14.8314 5.0051 14.6661 5 14.4998 5C14.3334 5 14.1686 5.0051 14.0053 5.0153V11.5381H11.1239C11.064 10.8903 10.8793 10.276 10.5912 9.71516C10.1562 8.86459 9.48506 8.13888 8.65722 7.61128C8.45042 7.85101 8.26024 8.10318 8.08864 8.36698C9.20635 9.07534 9.98151 10.2209 10.1299 11.5381H7.0164C7.00547 11.6911 7 11.8454 7 12.0006C7 12.1559 7.00547 12.3095 7.0164 12.4621H10.1299C9.98151 13.7797 9.20591 14.9249 8.0882 15.633C8.2598 15.8974 8.45042 16.1496 8.65744 16.3889C9.48441 15.8613 10.1557 15.1356 10.5914 14.2855C10.8789 13.7246 11.064 13.1097 11.1239 12.4621H14.0053V18.9849C14.1686 18.9949 14.3334 19 14.4998 19C14.6661 19 14.8314 18.9949 14.9954 18.9849V12.4621H17.8767C18.0276 14.0918 18.9702 15.5135 20.3432 16.3889C20.5496 16.1496 20.7402 15.8974 20.912 15.633C19.7943 14.9249 19.0191 13.7793 18.8707 12.4621H21.9836C21.9945 12.3095 22 12.1557 22 12.0004Z" fill="#A63914"/>
<path d="M6 16C6.08536 16.2412 6.1686 16.4831 6.24844 16.7259C6.33763 16.9938 6.42363 17.2627 6.50623 17.5326C7.41995 20.5108 7.96526 23.5912 8.10328 26.7462C9.89399 27.5507 11.8922 28 14.0003 28C16.1085 28 18.1067 27.5507 19.8974 26.7462C20.035 23.5912 20.58 20.5108 21.4944 17.5326C21.577 17.2627 21.6624 16.9938 21.7516 16.7259C21.832 16.4831 21.9146 16.2412 22 16H6ZM13.1968 26.4596H9.6982C9.64448 25.3819 9.54447 24.3073 9.3988 23.237H13.1968V26.4596ZM13.1968 21.6964H9.15736C8.90892 20.3003 8.58382 18.913 8.18057 17.5404H13.1968V21.6964ZM18.3024 26.4596H14.8038V23.237H18.6018C18.4562 24.3073 18.3557 25.3819 18.3024 26.4596ZM18.8433 21.6964H14.8038V17.5404H19.8196C19.4162 18.913 19.0917 20.3003 18.8433 21.6964Z" fill="white"/>
<path d="M14 16V28C16.1082 28 18.1065 27.5507 19.8973 26.7462C20.0349 23.5912 20.58 20.5108 21.4944 17.5326C21.577 17.2627 21.6624 16.9938 21.7515 16.7259C21.832 16.4831 21.9146 16.2412 22 16H14ZM18.3023 26.4596H14.8035V23.237H18.6017C18.456 24.3073 18.3556 25.3819 18.3023 26.4596ZM18.8432 21.6964H14.8035V17.5404H19.8196C19.4161 18.913 19.0916 20.3003 18.8432 21.6964Z" fill="#D0F6FF"/>
<path d="M25 16.4999C25 16.638 24.9061 16.7632 24.7538 16.8535C24.6021 16.9441 24.392 17 24.1604 17H3.8396C3.37584 17 3 16.7763 3 16.4999C3 16.362 3.09385 16.2368 3.24618 16.1465C3.39787 16.0558 3.6074 16 3.8396 16H24.1604C24.6242 16 25 16.2237 25 16.4999Z" fill="white"/>
</svg>
