<svg width="28" height="28" viewBox="0 0 28 28" fill="none" xmlns="http://www.w3.org/2000/svg">
<path d="M28 14C28 21.7321 21.7321 28 14 28C6.26791 28 0 21.7321 0 14C0 6.26791 6.26791 0 14 0C21.7321 0 28 6.26791 28 14Z" fill="#B5E237"/>
<path d="M28 13.9634C28 15.3918 27.7872 16.7703 27.3914 18.0687C27.1162 18.9716 26.7531 19.8359 26.3113 20.6517C25.8601 21.485 25.3269 22.267 24.7226 22.988C24.6908 23.0259 24.6591 23.0636 24.6269 23.1008C22.0598 26.1002 18.2509 28 14 28C9.74911 28 5.94022 26.1002 3.37375 23.1008C3.34149 23.0631 3.30923 23.0252 3.27805 22.9873C2.67307 22.267 2.13986 21.485 1.68933 20.6517C1.50946 20.321 1.34305 19.9821 1.19052 19.6356C0.424896 17.9014 0 15.9823 0 13.9634C0 11.4293 0.669922 9.05228 1.84186 7C4.25473 11.2258 8.79593 14.0731 14 14.0731C19.2041 14.0731 23.7459 11.2258 26.1581 7C27.3301 9.05228 28 11.4293 28 13.9634Z" fill="#95D600"/>
<path d="M26 21C25.6027 21.6892 25.1436 22.3417 24.6281 22.9509C24.1599 23.5051 23.6449 24.0231 23.09 24.5001C20.563 26.6735 17.1962 28 13.5 28C9.80378 28 6.43704 26.6735 3.91003 24.5001C3.35512 24.0231 2.84009 23.5051 2.37189 22.9509C1.85643 22.3417 1.39732 21.6892 1 21H26Z" fill="#323B5A"/>
<path d="M13 16.8487L12.4906 17L11 9.15127L11.2542 9.07543L11.5089 9L13 16.8487Z" fill="#9E69E2"/>
<path d="M11 9.07636L11.2914 9L13 16.9236L12.7088 17L11 9.07636Z" fill="#8E4FD2"/>
<path d="M14 9.41586C14 9.73877 13.7847 10 13.5192 10H10.8239C10.5964 10 10.3907 9.88801 10.2414 9.70708C10.1282 9.5697 10.0476 9.3924 10.0157 9.19381C10.0054 9.13117 10 9.06683 10 9.00031C10 8.34651 10.5089 7.8688 11.0302 8.03231L13.6392 8.85083C13.7456 8.88421 13.8355 8.95895 13.8993 9.0586C13.926 9.09972 13.9476 9.14544 13.9637 9.19381C13.9874 9.26251 14 9.33798 14 9.41586Z" fill="#535E89"/>
<path d="M22 17C22 17.5522 21.5522 18 21 18C20.4478 18 20 17.5522 20 17C20 16.4478 20.4478 16 21 16C21.5522 16 22 16.4478 22 17Z" fill="white"/>
<path d="M21 17.5C21 17.7761 20.7761 18 20.5 18C20.2239 18 20 17.7761 20 17.5C20 17.2239 20.2239 17 20.5 17C20.7761 17 21 17.2239 21 17.5Z" fill="#313B5A"/>
<path d="M20.4999 13C18.57 13 17 14.7944 17 16.9998C17 19.2056 18.57 21 20.4999 21C22.43 21 24 19.2056 24 16.9998C24 14.7944 22.43 13 20.4999 13ZM20.4999 20.2818C18.9167 20.2818 17.6289 18.8098 17.6289 16.9998C17.6289 15.1902 18.9169 13.7182 20.4999 13.7182C22.0831 13.7182 23.3715 15.1902 23.3715 16.9998C23.3715 18.8098 22.0831 20.2818 20.4999 20.2818Z" fill="#535E89"/>
<path d="M20.4997 14C18.5702 14 17 15.5702 17 17.4997C17 19.4298 18.5702 21 20.4997 21C22.4298 21 24 19.4298 24 17.4997C24 15.5702 22.4298 14 20.4997 14ZM20.4997 20.6278C18.775 20.6278 17.3722 19.2248 17.3722 17.4997C17.3722 15.775 18.7752 14.3719 20.4997 14.3719C22.2244 14.3719 23.6278 15.775 23.6278 17.4997C23.6278 19.2248 22.2244 20.6278 20.4997 20.6278Z" fill="#323B5A"/>
<path d="M20.9241 10.8382C20.8533 10.9398 20.7421 11 20.6231 11H19.3555C19.148 11 18.9791 10.8188 18.9791 10.595C18.9791 10.3712 19.148 10.1898 19.3555 10.1898H20.1225L19.7516 8.81023H17.872L18.1705 9.96875H17.3888L17.0137 8.5131C16.9821 8.39138 17.006 8.26084 17.0767 8.15978C17.1479 8.05922 17.2587 8 17.3766 8H20.0349C20.2028 8 20.3502 8.11946 20.3965 8.29259L20.985 10.4824C21.0182 10.6046 20.9955 10.7364 20.9241 10.8382Z" fill="#535E89"/>
<path d="M20.9992 16.7055C20.9905 16.8039 20.9255 16.8979 20.8136 16.9534C20.7501 16.9849 20.6795 17 20.6102 17C20.4791 17 20.3513 16.9463 20.2774 16.8487C19.0882 15.2707 18.1892 13.564 17.606 11.7759L17 10H17.8089L18.3586 11.6105C18.8238 13.0376 19.4954 14.4085 20.3598 15.7001C20.5452 15.9769 20.7396 16.2495 20.9425 16.5188C20.9861 16.5767 21.0041 16.642 20.9992 16.7055Z" fill="#8E4FD2"/>
<path d="M20.9519 16.8051C20.7826 16.5242 20.6204 16.2394 20.4657 15.9504C19.7445 14.6023 19.1841 13.1711 18.796 11.6813L18.3373 10H18L18.4827 11.7696C18.9325 13.4958 19.6127 15.151 20.5043 16.6893C20.6089 16.8694 20.7939 16.9856 20.9994 17C21.0033 16.9339 20.9883 16.8657 20.9519 16.8051Z" fill="#8E4FD2"/>
<path d="M19.4565 9H17L17.3723 10.2052H17.7336L17.4578 9.31232H19.1947L19.5374 10.3755H18.8287C18.6369 10.3755 18.4806 10.5152 18.4806 10.6877C18.4806 10.8603 18.6369 11 18.8287 11H18.9004C18.8633 10.8388 19.0006 10.6877 19.1839 10.6877H20L19.4565 9Z" fill="#313B5A"/>
<path d="M8 17C8 17.5522 7.55222 18 7 18C6.44758 18 6 17.5522 6 17C6 16.4476 6.44758 16 7 16C7.55222 16 8 16.4476 8 17Z" fill="white"/>
<path d="M6.99979 13C4.7947 13 3 14.7942 3 17.0001C3 19.2058 4.7947 21 6.99979 21C9.20551 21 11 19.2058 11 17.0001C11 14.7942 9.20551 13 6.99979 13ZM6.99979 20.1209C5.27924 20.1209 3.87928 18.7208 3.87928 17.0001C3.87928 15.2792 5.27924 13.8791 6.99979 13.8791C8.72097 13.8791 10.1207 15.2792 10.1207 17.0001C10.1207 18.7208 8.72076 20.1209 6.99979 20.1209Z" fill="#535E89"/>
<path d="M6.99965 13C4.79395 13 3 14.7946 3 17.0003C3 19.2061 4.79395 21 6.99965 21C9.20536 21 11 19.2061 11 17.0003C11 14.7946 9.20513 13 6.99965 13ZM6.99965 20.4566C5.09398 20.4566 3.54339 18.906 3.54339 17.0003C3.54339 15.0944 5.09398 13.5439 6.99965 13.5439C8.90602 13.5439 10.4564 15.0944 10.4564 17.0003C10.4564 18.906 8.90579 20.4566 6.99965 20.4566Z" fill="#323B5A"/>
<path d="M18.9873 12.5274L18.6154 11.2386C18.5747 11.0977 18.4437 11 18.2944 11H11.7208C11.6201 11 11.5245 11.0445 11.4608 11.122L7.07441 16.4653C6.99343 16.5638 6.97703 16.6989 7.03268 16.8131C7.08791 16.9273 7.20543 17 7.33376 17H13.2862C13.3597 17 13.4307 16.9761 13.4892 16.9324L18.8692 12.878C18.9778 12.796 19.0247 12.6569 18.9873 12.5274ZM8.03267 16.3432L11.8802 11.6568H18.0419L18.2832 12.4918L13.1734 16.3432H8.03267Z" fill="#8E4FD2"/>
<path d="M18.6064 11H11.6455L7 17H13.3031L19 12.4472L18.6064 11ZM13.1837 16.6311H7.74009L11.8143 11.3687H18.3391L18.5946 12.3063L13.1837 16.6311Z" fill="#9E69E2"/>
<path d="M12.6695 15.4497V17.5881L7.33028 17.092V16.4905L12.6695 15.4497ZM13 15L7 16.1694V17.4425L13 18V15Z" fill="#313B5A"/>
<path d="M14 16.4999C14 17.3284 13.5523 18 13.0001 18C12.4477 18 12 17.3284 12 16.4999C12 15.6716 12.4477 15 13.0001 15C13.5523 15 14 15.6716 14 16.4999Z" fill="#313B5A"/>
<path d="M14 16.4999C14 16.776 13.7762 17 13.5001 17C13.224 17 13 16.776 13 16.4999C13 16.2238 13.224 16 13.5001 16C13.7762 16 14 16.2238 14 16.4999Z" fill="white"/>
<path d="M14 9.27543C14 9.67597 13.7839 10 13.5173 10H10.8113C10.583 10 10.3764 9.86109 10.2265 9.63666C10.1129 9.46625 10.032 9.24632 10 9H13.9636C13.9874 9.08521 14 9.17882 14 9.27543Z" fill="#313B5A"/>
<path d="M8 16.5001C8 16.7761 7.55228 17 7.00019 17C6.44772 17 6 16.7761 6 16.5001C6 16.2239 6.44772 16 7.00019 16C7.55228 16 8 16.2239 8 16.5001Z" fill="#313B5A"/>
<path d="M6.91925 11C6.95169 10.9607 6.96756 10.9413 7 10.9021C6.96089 10.2537 6.4865 9.74156 5.90674 9.74156C5.7855 9.74156 5.66886 9.76434 5.55981 9.80571C5.52553 9.8188 5.48711 9.80388 5.46802 9.76879C5.21771 9.30741 4.76955 9 4.25835 9C3.58864 9 3.02729 9.52736 2.87682 10.237C2.86785 10.2797 2.83219 10.3074 2.79354 10.3048C2.77836 10.3037 2.7634 10.3035 2.74799 10.3035C2.41141 10.3035 2.12383 10.5399 2.00581 10.8748C1.98464 10.9348 2.02398 11 2.08058 11H6.91925Z" fill="white"/>
<path d="M5.91647 11C5.95206 10.9608 5.96465 10.9467 6 10.9078C5.95521 10.6043 5.67847 10.3707 5.34337 10.3707C5.27897 10.3707 5.21675 10.3796 5.15767 10.3957C5.12232 10.4053 5.08455 10.3932 5.06421 10.3643C4.91047 10.1448 4.64607 10 4.34584 10C3.94998 10 3.61658 10.2516 3.51659 10.5938C3.50618 10.6291 3.47131 10.6516 3.43257 10.6516C3.43233 10.6516 3.43209 10.6516 3.43185 10.6516C3.25123 10.6516 3.09385 10.7448 3.0108 10.8825C2.97908 10.9349 3.02121 10.9998 3.08513 10.9998H5.91647V11Z" fill="#D0F6FF"/>
<path d="M11.9195 5C11.9519 4.98036 11.9678 4.97067 12 4.95103C11.9611 4.62687 11.4865 4.37078 10.9069 4.37078C10.7857 4.37078 10.669 4.38217 10.56 4.40285C10.5255 4.4094 10.4873 4.40194 10.4682 4.38439C10.2179 4.15371 9.76967 4 9.25845 4C8.58871 4 8.02733 4.26368 7.87687 4.61849C7.86766 4.63983 7.83223 4.65371 7.79358 4.6524C7.77839 4.65187 7.76321 4.65174 7.74802 4.65174C7.41143 4.65174 7.12361 4.76997 7.00581 4.93742C6.98464 4.9674 7.02399 5 7.08058 5H11.9195Z" fill="white"/>
<path d="M10.9165 5C10.9518 4.96084 10.9647 4.94672 11 4.90779C10.9552 4.60428 10.6782 4.37067 10.3434 4.37067C10.2788 4.37067 10.2165 4.37955 10.1577 4.39572C10.1224 4.40528 10.0843 4.39321 10.0643 4.3643C9.91027 4.14481 9.64613 4 9.34568 4C8.94983 4 8.61669 4.25159 8.51646 4.59381C8.50629 4.6291 8.47143 4.65164 8.43245 4.65164C8.43221 4.65164 8.43197 4.65164 8.43197 4.65164C8.25135 4.65164 8.09398 4.74476 8.0107 4.88251C7.97922 4.93488 8.02111 4.99977 8.08527 4.99977L10.9165 5Z" fill="#D0F6FF"/>
<path d="M20.9195 5C20.9517 4.98036 20.9676 4.97067 21 4.95103C20.9609 4.62687 20.4865 4.37078 19.907 4.37078C19.7855 4.37078 19.6691 4.38217 19.56 4.40285C19.5255 4.4094 19.4873 4.40194 19.4682 4.38439C19.2177 4.15371 18.7697 4 18.2583 4C17.5886 4 17.0274 4.26368 16.877 4.61849C16.8678 4.63983 16.8321 4.65371 16.7935 4.6524C16.7785 4.65187 16.7633 4.65174 16.7479 4.65174C16.4115 4.65174 16.1237 4.76997 16.0057 4.93742C15.9848 4.9674 16.0241 5 16.0807 5H20.9195Z" fill="white"/>
<path d="M19.9162 5C19.9518 4.96084 19.9647 4.94672 20 4.90779C19.9552 4.60428 19.6782 4.37067 19.3434 4.37067C19.2788 4.37067 19.2165 4.37955 19.1577 4.39572C19.1224 4.40528 19.0844 4.39321 19.0643 4.3643C18.9103 4.14481 18.6461 4 18.3457 4C17.9498 4 17.6167 4.25159 17.5165 4.59381C17.5063 4.6291 17.4714 4.65164 17.4325 4.65164C17.4322 4.65164 17.432 4.65164 17.4317 4.65164C17.2511 4.65164 17.094 4.74476 17.0107 4.88251C16.9792 4.93488 17.0211 4.99977 17.085 4.99977L19.9162 5Z" fill="#D0F6FF"/>
<path d="M24.9356 12C24.9613 11.9607 24.9742 11.9413 25 11.9021C24.9687 11.2537 24.5892 10.7416 24.1256 10.7416C24.0284 10.7416 23.9351 10.7643 23.848 10.8057C23.8204 10.8188 23.7898 10.8039 23.7746 10.7688C23.5741 10.3074 23.2158 10 22.8066 10C22.2709 10 21.8219 10.5274 21.7016 11.237C21.6942 11.2797 21.6657 11.3074 21.6348 11.3048C21.6228 11.3037 21.6107 11.3032 21.5983 11.3032C21.3292 11.3032 21.099 11.5399 21.0046 11.8748C20.9878 11.9345 21.0193 12 21.0646 12H24.9356Z" fill="white"/>
<path d="M24.9162 12C24.9518 11.9608 24.9644 11.9467 25 11.9078C24.955 11.6043 24.6782 11.3707 24.3432 11.3707C24.2788 11.3707 24.2165 11.3796 24.1575 11.3957C24.1224 11.4053 24.0844 11.3932 24.064 11.3643C23.9103 11.1448 23.6461 11 23.3457 11C22.9498 11 22.6167 11.2516 22.5165 11.5938C22.5061 11.6291 22.4714 11.6516 22.4325 11.6516C22.4322 11.6516 22.432 11.6516 22.4317 11.6516C22.2511 11.6516 22.0937 11.7445 22.0107 11.8825C21.9792 11.9349 22.0211 11.9998 22.085 11.9998H24.9162V12Z" fill="#D0F6FF"/>
</svg>
