<svg width="18" height="18" viewBox="0 0 18 18" fill="none" xmlns="http://www.w3.org/2000/svg">
<path d="M16.2 4.50864H3.24C2.16 4.50864 1.8 3.96898 1.8 3.60921L16.2 2.26008V0.910942C16.2 0.371287 15.66 -0.0784248 15.12 0.0115176L1.53 2.43996C0.63 2.61985 0 3.33939 0 4.23881V16.2012C0 17.1905 0.81 18 1.8 18H16.2C17.19 18 18 17.1905 18 16.2012V6.30749C18 5.31812 17.19 4.50864 16.2 4.50864ZM14.85 12.6035C14.13 12.6035 13.5 11.9739 13.5 11.2543C13.5 10.5348 14.13 9.90518 14.85 9.90518C15.57 9.90518 16.2 10.5348 16.2 11.2543C16.2 11.9739 15.57 12.6035 14.85 12.6035Z" fill="white"/>
</svg>
