<svg width="13" height="17" viewBox="0 0 13 17" fill="none" xmlns="http://www.w3.org/2000/svg">
<path d="M13 6.19244C13 2.77491 10.0873 0 6.5 0C2.91274 0 0 2.77491 0 6.19244C0 8.99656 2.05425 11.5086 4.875 12.2096L5.42689 13.6117C3.89387 13.6993 1.3184 14.0498 1.3184 15.2766C1.3184 16.9416 5.97877 17 6.53066 17C7.08255 17 11.7429 16.9416 11.7429 15.2766C11.7429 14.0206 9.13679 13.6993 7.60377 13.6117L8.125 12.2388C10.9458 11.5378 13 9.02577 13 6.19244ZM8.61557 6.19244C8.61557 7.3024 7.66509 8.2079 6.5 8.2079C5.33491 8.2079 4.38443 7.3024 4.38443 6.19244C4.38443 5.08247 5.33491 4.17698 6.5 4.17698C7.66509 4.17698 8.61557 5.08247 8.61557 6.19244ZM10.6391 15.2766C10.3325 15.5687 8.83019 16.0069 6.5 16.0069C4.20047 16.0069 2.69811 15.5687 2.36085 15.2766C2.63679 15.0137 3.89387 14.634 5.79481 14.5756L6.13208 15.4227C6.1934 15.5687 6.31604 15.6564 6.5 15.6564C6.6533 15.6564 6.8066 15.5687 6.86792 15.4227L7.17453 14.5756C9.10613 14.634 10.3325 15.0137 10.6391 15.2766Z" fill="#FC9B04"/>
</svg>
