<svg width="28" height="28" viewBox="0 0 28 28" fill="none" xmlns="http://www.w3.org/2000/svg">
<path d="M14 28C21.732 28 28 21.732 28 14C28 6.26801 21.732 0 14 0C6.26801 0 0 6.26801 0 14C0 21.732 6.26801 28 14 28Z" fill="#B9EAFF"/>
<path d="M28 14.3635C28 12.303 27.5265 10.3496 26.6805 8.59838L22.9597 5L5 23.3687L8.86059 27.1023C10.4255 27.6816 12.1241 28 13.8998 28C21.6871 28 28 21.8947 28 14.3635Z" fill="#35CCFF"/>
<path d="M16.3676 10.8153L16.1847 10.6324C15.9384 10.3862 15.9384 9.98698 16.1847 9.74072L21.7407 4.1847C21.987 3.93843 22.3862 3.93843 22.6324 4.1847L22.8153 4.36757C23.0616 4.61383 23.0616 5.01302 22.8153 5.25928L17.2593 10.8153C17.0131 11.0616 16.6138 11.0616 16.3676 10.8153Z" fill="#FF6838"/>
<path d="M22.8076 5.07463L22.7205 5L16 10.7604L16.0871 10.835C16.3438 11.055 16.7598 11.055 17.0165 10.835L22.8076 5.87123C23.0641 5.65127 23.0641 5.29464 22.8076 5.07463Z" fill="#AE4E32"/>
<path d="M5.26684 23.7319L3.286 21.8748C2.90467 21.5173 2.90467 20.9377 3.286 20.5802L15.3522 9.26813C15.7335 8.91062 16.3517 8.91062 16.7331 9.26813L18.714 11.1252C19.0953 11.4827 19.0953 12.0623 18.714 12.4198L6.64782 23.7319C6.26648 24.0894 5.64817 24.0894 5.26684 23.7319Z" fill="#FFCF35"/>
<path d="M17.7935 10L5 22.7935L5.93437 23.7279C6.29717 24.0907 6.88532 24.0907 7.24812 23.7279L18.7279 12.2482C19.0907 11.8854 19.0907 11.2972 18.7279 10.9344L17.7935 10Z" fill="#FFB344"/>
<path d="M18.7401 11.2257L16.7744 9.25991C16.4279 8.91336 15.8661 8.91336 15.5196 9.25991L14 10.7795L17.2204 14L18.74 12.4804C19.0866 12.134 19.0866 11.5721 18.7401 11.2257Z" fill="#F1333F"/>
<path d="M15 12.2905L16.8953 14L18.6926 12.3789C19.1025 12.0092 19.1025 11.4099 18.6926 11.0402L17.5394 10L15 12.2905Z" fill="#AE283F"/>
<path d="M14 22C15.1046 22 16 21.3284 16 20.5C16 19.6716 15.1046 19 14 19C12.8954 19 12 19.6716 12 20.5C12 21.3284 12.8954 22 14 22Z" fill="#F1333F"/>
<path d="M16 20.5C16 19.6716 15.1046 19 14 19V22C15.1046 22 16 21.3284 16 20.5Z" fill="#AE283F"/>
</svg>
