<svg width="169.29999999999998" height="475.817" xmlns="http://www.w3.org/2000/svg">

 <g>
  <title>background</title>
  <rect fill="none" id="canvas_background" height="402" width="582" y="-1" x="-1"/>
 </g>
 <g>
  <title>Layer 1</title>
  <path fill="#ffffff" id="path1943" d="m106.182,0c-22.3787,2.504 -103.75535,39.697 -106.12875,231.479c-2.5,202.025 83.75005,244.525 106.36975,244.067l0,-133.436c-18.6197,0 -22.3656,-20.274 -26.6197,-62.106c-2.815,-27.679 -3.6359,-61.943 0,-96c2.552,-23.897 7,-47.223 26.4997,-47.223l-0.121,-136.781z"/>
  <path fill="#ffffff" id="path1945" d="m154.428,475.781c8.625,0 14.811,-7.027 14.811,-14.902l0.061,-0.062c0,0 -0.061,-104 -0.061,-104.063c0,-8.25 -6.686,-14.754 -14.811,-14.754l-37.8,0l0,133.781c0,0 37.707,0.058 37.738,0.027l0.062,-0.027z"/>
  <path fill="#ffffff" id="path1947" d="m154.428,136.781c8.625,0 14.811,-7.027 14.811,-14.902l0.061,-0.062c0,0 -0.061,-107 -0.061,-107.063c0,-8.25 -6.686,-14.754 -14.811,-14.754l-37.8,0l0,136.781c0,0 37.707,0.058 37.738,0.027l0.062,-0.027z"/>
 </g>
</svg>